<?xml version="1.0" encoding="UTF-8"?>
<svg xmlns="http://www.w3.org/2000/svg" xmlns:xlink="http://www.w3.org/1999/xlink" width="1000px" height="683px" viewBox="0 0 999 683" version="1.1">
<defs>
<filter id="alpha" filterUnits="objectBoundingBox" x="0%" y="0%" width="100%" height="100%">
  <feColorMatrix type="matrix" in="SourceGraphic" values="0 0 0 0 1 0 0 0 0 1 0 0 0 0 1 0 0 0 1 0"/>
</filter>
<mask id="mask0">
  <g filter="url(#alpha)">
<rect x="0" y="0" width="999" height="683" style="fill:rgb(0%,0%,0%);fill-opacity:0.2;stroke:none;"/>
  </g>
</mask>
<clipPath id="clip1">
  <rect x="0" y="0" width="999" height="683"/>
</clipPath>
<g id="surface5" clip-path="url(#clip1)">
<path style=" stroke:none;fill-rule:nonzero;fill:rgb(0%,0%,0%);fill-opacity:1;" d="M 544.691406 263.449219 C 526.234375 281.914062 496.316406 281.914062 477.863281 263.449219 C 462.171875 247.746094 459.515625 223.234375 471.476562 204.527344 L 461.082031 215.140625 C 442.625 233.605469 442.625 263.542969 461.082031 282.007812 C 479.535156 300.472656 509.453125 300.472656 527.90625 282.007812 L 550.945312 258.074219 L 551.296875 256.585938 Z M 544.691406 263.449219 "/>
</g>
<mask id="mask1">
  <g filter="url(#alpha)">
<rect x="0" y="0" width="999" height="683" style="fill:rgb(0%,0%,0%);fill-opacity:0.2;stroke:none;"/>
  </g>
</mask>
<clipPath id="clip2">
  <rect x="0" y="0" width="999" height="683"/>
</clipPath>
<g id="surface8" clip-path="url(#clip2)">
<path style=" stroke:none;fill-rule:nonzero;fill:rgb(0%,0%,0%);fill-opacity:1;" d="M 566.636719 115.570312 C 588.207031 100.871094 617.601562 106.453125 632.292969 128.035156 C 644.78125 146.390625 642.824219 170.96875 627.589844 187.113281 L 639.78125 178.628906 C 661.351562 163.925781 666.925781 134.511719 652.238281 112.929688 C 637.546875 91.347656 608.152344 85.765625 586.582031 100.46875 L 559.488281 119.6875 L 558.867188 121.082031 Z M 566.636719 115.570312 "/>
</g>
</defs>
<g id="surface1">
<path style=" stroke:none;fill-rule:nonzero;fill:rgb(94.901961%,94.901961%,94.901961%);fill-opacity:1;" d="M 346.972656 654.242188 C 345.34375 654.316406 343.84375 653.363281 343.214844 651.859375 C 342.585938 650.355469 342.964844 648.621094 344.160156 647.511719 L 344.425781 646.457031 C 344.390625 646.371094 344.355469 646.285156 344.320312 646.203125 C 342.683594 642.335938 338.886719 639.828125 334.6875 639.84375 C 330.492188 639.859375 326.710938 642.394531 325.105469 646.273438 C 321.960938 653.847656 317.960938 661.433594 316.976562 669.441406 C 316.542969 672.984375 316.722656 676.570312 317.515625 680.046875 C 310.132812 663.9375 306.300781 646.425781 306.277344 628.699219 C 306.273438 624.253906 306.523438 619.808594 307.015625 615.386719 C 307.425781 611.765625 307.992188 608.167969 308.71875 604.59375 C 312.671875 585.214844 321.167969 567.046875 333.503906 551.589844 C 339.472656 548.332031 344.300781 543.320312 347.335938 537.230469 C 348.4375 535.039062 349.214844 532.703125 349.644531 530.292969 C 348.96875 530.378906 347.105469 520.117188 347.613281 519.488281 C 346.675781 518.0625 344.992188 517.351562 343.96875 515.960938 C 338.871094 509.046875 331.847656 510.253906 328.179688 519.652344 C 320.347656 523.609375 320.273438 530.167969 325.078125 536.476562 C 328.136719 540.492188 328.554688 545.921875 331.238281 550.21875 C 330.964844 550.574219 330.675781 550.917969 330.398438 551.269531 C 325.355469 557.761719 320.957031 564.734375 317.269531 572.082031 C 318.167969 563.847656 317.097656 555.519531 314.148438 547.777344 C 311.160156 540.566406 305.558594 534.492188 300.628906 528.253906 C 294.703125 520.765625 282.554688 524.035156 281.507812 533.527344 C 281.5 533.621094 281.488281 533.710938 281.480469 533.804688 C 282.210938 534.21875 282.929688 534.65625 283.632812 535.121094 C 285.4375 536.328125 286.316406 538.519531 285.84375 540.636719 C 285.375 542.757812 283.65625 544.371094 281.511719 544.703125 L 281.402344 544.71875 C 281.664062 547.359375 282.125 549.980469 282.78125 552.550781 C 276.453125 577.039062 290.117188 585.957031 309.621094 586.355469 C 310.050781 586.578125 310.472656 586.796875 310.902344 587.007812 C 307.199219 597.511719 304.875 608.449219 303.992188 619.554688 C 303.492188 626.101562 303.519531 632.683594 304.078125 639.226562 L 304.046875 638.996094 C 302.632812 631.71875 298.753906 625.152344 293.0625 620.402344 C 284.609375 613.453125 272.664062 610.894531 263.542969 605.3125 C 261.566406 604.039062 259.027344 604.03125 257.042969 605.292969 C 255.058594 606.554688 253.984375 608.855469 254.292969 611.191406 C 254.304688 611.269531 254.320312 611.351562 254.332031 611.433594 C 255.691406 611.988281 257.015625 612.625 258.292969 613.34375 C 259.027344 613.757812 259.746094 614.195312 260.445312 614.660156 C 262.25 615.867188 263.128906 618.058594 262.660156 620.179688 C 262.191406 622.296875 260.46875 623.910156 258.324219 624.242188 L 258.21875 624.257812 C 258.140625 624.269531 258.074219 624.28125 257.996094 624.292969 C 260.320312 629.84375 263.582031 634.949219 267.636719 639.394531 C 271.589844 660.769531 288.585938 662.796875 306.761719 656.574219 L 306.773438 656.574219 C 308.769531 665.246094 311.65625 673.6875 315.394531 681.761719 L 346.199219 681.761719 C 346.308594 681.417969 346.410156 681.0625 346.507812 680.722656 C 343.65625 680.902344 340.792969 680.730469 337.984375 680.214844 C 340.269531 677.40625 342.554688 674.578125 344.839844 671.773438 C 344.890625 671.722656 344.941406 671.664062 344.984375 671.609375 C 346.144531 670.171875 347.3125 668.746094 348.472656 667.308594 C 348.535156 662.90625 348.03125 658.515625 346.972656 654.242188 Z M 346.972656 654.242188 "/>
<path style=" stroke:none;fill-rule:nonzero;fill:rgb(62.745098%,38.039216%,41.568627%);fill-opacity:1;" d="M 110.042969 607.621094 L 118.542969 616.609375 L 158.007812 587.355469 L 145.464844 574.089844 Z M 110.042969 607.621094 "/>
<path style=" stroke:none;fill-rule:nonzero;fill:rgb(18.431373%,18.039216%,25.490196%);fill-opacity:1;" d="M 123.972656 612.59375 L 114.351562 603.550781 L 111.988281 601.335938 L 87.492188 620.929688 L 93.863281 627.667969 L 101.363281 622.855469 L 97.917969 631.957031 L 114.8125 649.824219 C 116.472656 651.585938 119.085938 652.058594 121.257812 650.996094 C 123.429688 649.929688 124.660156 647.578125 124.292969 645.183594 L 120.644531 621.582031 L 127.070312 615.503906 Z M 123.972656 612.59375 "/>
<path style=" stroke:none;fill-rule:nonzero;fill:rgb(18.431373%,18.039216%,25.490196%);fill-opacity:1;" d="M 296.832031 280.363281 L 294.136719 309.796875 C 294.136719 309.796875 289.433594 331.972656 292.691406 330.175781 C 295.945312 328.378906 290.109375 336.46875 291.644531 343.484375 C 293.183594 350.5 278.507812 402.816406 285.15625 397.398438 C 291.800781 391.976562 281.316406 429.417969 274.683594 447.890625 C 272.652344 453.601562 270.566406 459.378906 268.464844 465.117188 C 268.050781 466.277344 267.636719 467.425781 267.207031 468.585938 C 264.484375 476.054688 261.761719 483.410156 259.152344 490.347656 C 258.777344 491.316406 258.417969 492.285156 258.058594 493.238281 C 258.046875 493.265625 258.046875 493.292969 258.03125 493.292969 C 249.4375 515.925781 242.074219 533.734375 239.128906 536.679688 C 237.597656 538.214844 213.265625 555.800781 188.738281 573.414062 C 162.996094 591.902344 137.046875 610.425781 137.046875 610.425781 L 112.8125 584.988281 C 112.8125 584.988281 113.390625 584.820312 114.484375 584.492188 C 116.5 583.910156 120.230469 582.816406 125.121094 581.367188 C 145.515625 575.351562 119.609375 565.992188 138.125 559.300781 C 143.347656 557.417969 146.828125 555.953125 147.617188 555.179688 C 152.21875 550.6875 158.394531 539.96875 161.3125 544.464844 C 164.226562 548.957031 177.449219 515.566406 181.261719 512.261719 C 183.308594 510.480469 189.980469 502.144531 195.703125 494.816406 C 200.621094 488.511719 204.847656 482.9375 204.847656 482.9375 C 204.847656 482.9375 204.933594 479.953125 205.054688 475.195312 C 205.234375 468.160156 205.5 457.222656 205.773438 446.273438 C 205.761719 446.257812 205.761719 446.257812 205.773438 446.257812 C 205.871094 442.136719 205.96875 438.019531 206.066406 434.105469 C 206.132812 431.078125 206.203125 428.160156 206.273438 425.464844 C 206.453125 417.390625 206.578125 411.277344 206.578125 409.757812 C 206.578125 404.765625 206.578125 408.652344 210.515625 405.636719 C 211.101562 405.175781 211.660156 404.675781 212.1875 404.144531 C 213.027344 403.386719 213.804688 402.558594 214.507812 401.667969 C 214.796875 401.046875 212.988281 401.890625 210.636719 401.421875 C 209.367188 401.164062 208.191406 400.5625 207.238281 399.679688 C 202.292969 395.226562 207.625 381.539062 207.625 381.539062 C 196.378906 359.03125 197.195312 340.574219 202.457031 326.347656 C 206.394531 316.136719 212.644531 306.980469 220.710938 299.59375 C 223.78125 296.664062 227.128906 294.039062 230.703125 291.753906 L 231.046875 289.886719 L 234.847656 269.300781 C 236.867188 268.191406 238.96875 267.234375 241.132812 266.4375 C 247.882812 264.015625 255.125 263.292969 262.21875 264.335938 C 269.269531 265.359375 276.097656 267.570312 282.40625 270.878906 C 287.566406 273.46875 292.40625 276.652344 296.832031 280.363281 Z M 296.832031 280.363281 "/>
<path style=" stroke:none;fill-rule:nonzero;fill:rgb(62.745098%,38.039216%,41.568627%);fill-opacity:1;" d="M 190.707031 653.484375 L 203.019531 654.628906 L 213.394531 606.59375 L 195.222656 604.902344 Z M 190.707031 653.484375 "/>
<path style=" stroke:none;fill-rule:nonzero;fill:rgb(18.431373%,18.039216%,25.490196%);fill-opacity:1;" d="M 226.167969 672.3125 L 207.875 656.980469 L 208.703125 648.160156 L 204.449219 648.019531 L 191.265625 647.589844 L 191.253906 647.589844 L 188.019531 647.480469 L 182.535156 678.367188 L 191.777344 679.226562 L 194.222656 670.652344 L 197.636719 679.777344 L 202.527344 680.234375 L 222.105469 682.058594 C 222.273438 682.074219 222.453125 682.085938 222.617188 682.085938 C 224.191406 682.089844 225.691406 681.414062 226.734375 680.234375 C 227.539062 679.355469 228.027344 678.238281 228.132812 677.054688 C 228.296875 675.246094 227.5625 673.472656 226.167969 672.3125 Z M 226.167969 672.3125 "/>
<path style=" stroke:none;fill-rule:nonzero;fill:rgb(18.431373%,18.039216%,25.490196%);fill-opacity:1;" d="M 259.152344 490.347656 C 254.46875 515.859375 234.640625 575.667969 222.644531 610.675781 C 217.1875 626.671875 213.375 637.5 213.375 637.5 L 207.15625 635.535156 L 207.144531 635.535156 L 196.628906 632.214844 L 192.800781 631 L 192.785156 631 L 188.144531 629.519531 C 188.144531 629.519531 188.683594 600.957031 188.738281 573.414062 C 188.777344 561.871094 188.722656 550.492188 188.503906 541.476562 C 188.253906 531.648438 187.824219 524.609375 187.121094 523.214844 C 184.207031 517.488281 189.082031 516.882812 194.238281 515.441406 C 199.40625 513.992188 195.371094 511.808594 193.367188 507.160156 C 192.011719 504.0625 194.679688 499.929688 196.574219 497.582031 C 197.09375 496.917969 197.652344 496.285156 198.246094 495.6875 C 198.246094 495.6875 197.332031 495.367188 195.703125 494.816406 C 200.621094 488.511719 204.847656 482.9375 204.847656 482.9375 C 204.847656 482.9375 204.933594 479.953125 205.054688 475.195312 C 205.234375 468.160156 205.5 457.222656 205.773438 446.273438 C 205.761719 446.257812 205.761719 446.257812 205.773438 446.257812 C 205.871094 442.136719 205.96875 438.019531 206.066406 434.105469 C 213.96875 440.175781 221.652344 446.121094 228.613281 451.625 C 228.632812 451.636719 228.640625 451.65625 228.644531 451.679688 C 245.375 464.910156 257.9375 475.527344 259.703125 478.902344 C 260.503906 480.421875 260.230469 484.488281 259.152344 490.347656 Z M 259.152344 490.347656 "/>
<path style=" stroke:none;fill-rule:nonzero;fill:rgb(100%,71.372549%,71.372549%);fill-opacity:1;" d="M 671.089844 39.945312 C 675.878906 39.5 680.152344 42.949219 680.730469 47.726562 C 680.78125 48.195312 680.792969 48.664062 680.761719 49.136719 L 709.257812 61.308594 L 708.171875 77.953125 L 670.9375 57.050781 C 666.953125 56.496094 663.84375 53.328125 663.363281 49.332031 C 662.847656 44.675781 666.203125 40.484375 670.855469 39.96875 C 670.933594 39.960938 671.011719 39.953125 671.089844 39.945312 Z M 671.089844 39.945312 "/>
<path style=" stroke:none;fill-rule:nonzero;fill:rgb(90.196078%,90.196078%,90.196078%);fill-opacity:1;" d="M 864.949219 142.667969 C 864.246094 139.441406 862.9375 136.378906 861.09375 133.640625 C 860.582031 132.863281 860.023438 132.113281 859.421875 131.402344 C 857.183594 128.734375 855.097656 126.285156 853.164062 124.101562 C 851.988281 122.730469 850.839844 121.460938 849.765625 120.285156 C 843.503906 113.414062 839.402344 109.777344 837.523438 109.472656 C 836.609375 109.320312 835.710938 109.210938 834.839844 109.101562 C 830.378906 108.546875 827.144531 108.144531 827.046875 103.429688 C 827.039062 102.753906 827.085938 102.082031 827.1875 101.414062 C 827.351562 100.289062 827.597656 99.183594 827.917969 98.09375 C 828.101562 97.476562 828.246094 96.851562 828.347656 96.214844 C 828.484375 95.398438 828.429688 94.789062 827.988281 94.417969 C 827.433594 93.960938 826.507812 94.03125 824.765625 94.722656 C 824.492188 94.832031 824.171875 94.957031 823.84375 95.109375 C 823.730469 95.148438 823.621094 95.203125 823.496094 95.261719 C 823.277344 95.355469 823.027344 95.46875 822.777344 95.59375 C 820.691406 96.585938 817.472656 96.710938 813.796875 96.339844 C 802.949219 95.234375 788.277344 89.757812 788.097656 89.6875 L 695.683594 53.753906 L 694.828125 55.136719 L 692.796875 58.429688 L 692.09375 59.5625 L 691.292969 60.859375 L 687.796875 66.503906 L 686.027344 69.351562 L 715.871094 91.871094 L 719.121094 94.320312 L 721.910156 96.4375 L 778.894531 139.449219 L 800.144531 153.480469 L 804.886719 156.605469 L 825.085938 169.933594 C 830.953125 173.8125 838.136719 175.152344 845.003906 173.652344 C 851.875 172.15625 857.84375 167.941406 861.5625 161.96875 C 865.152344 156.21875 866.363281 149.300781 864.949219 142.667969 Z M 864.949219 142.667969 "/>
<path style=" stroke:none;fill-rule:nonzero;fill:rgb(90.196078%,90.196078%,90.196078%);fill-opacity:1;" d="M 997.246094 682.996094 L 1.382812 682.996094 C 0.617188 682.996094 0 682.378906 0 681.613281 C 0 680.851562 0.617188 680.230469 1.382812 680.230469 L 997.246094 680.230469 C 998.007812 680.230469 998.628906 680.851562 998.628906 681.613281 C 998.628906 682.378906 998.007812 682.996094 997.246094 682.996094 Z M 997.246094 682.996094 "/>
<path style=" stroke:none;fill-rule:nonzero;fill:rgb(100%,71.372549%,71.372549%);fill-opacity:1;" d="M 227.871094 230.605469 L 230.460938 254.636719 L 228.9375 286.148438 L 298.695312 277.855469 L 305.246094 230.605469 L 296.894531 230.6875 Z M 227.871094 230.605469 "/>
<path style=" stroke:none;fill-rule:nonzero;fill:rgb(90.196078%,90.196078%,90.196078%);fill-opacity:1;" d="M 287.207031 152.984375 L 260.953125 132.242188 L 247.171875 131.441406 L 226.722656 144.550781 L 221.714844 170.109375 L 209.875 198.894531 L 227.242188 276.570312 C 227.242188 276.570312 228.871094 282.144531 224.601562 282.8125 C 220.335938 283.484375 220.847656 291.699219 220.847656 291.699219 C 220.847656 291.699219 221.714844 298.820312 217.570312 299.445312 C 213.425781 300.074219 202.371094 300.074219 212.042969 312.515625 C 221.714844 324.960938 298.21875 277.898438 298.21875 277.898438 L 309.328125 219.5625 C 309.328125 219.5625 330.878906 190.601562 307.671875 174.015625 Z M 287.207031 152.984375 "/>
<path style=" stroke:none;fill-rule:nonzero;fill:rgb(62.745098%,38.039216%,41.568627%);fill-opacity:1;" d="M 172.597656 329.34375 C 170.257812 326.421875 169.332031 322.609375 170.066406 318.933594 C 170.804688 315.261719 173.128906 312.101562 176.417969 310.308594 L 209.441406 199.417969 L 230.089844 209.820312 L 194.125 316.109375 C 196.832031 321.964844 194.730469 328.917969 189.238281 332.292969 C 183.746094 335.671875 176.597656 334.402344 172.597656 329.34375 Z M 172.597656 329.34375 "/>
<path style=" stroke:none;fill-rule:nonzero;fill:rgb(90.196078%,90.196078%,90.196078%);fill-opacity:1;" d="M 231.464844 143.523438 C 231.464844 143.523438 225.5625 140.386719 221.527344 153.96875 C 218.292969 164.84375 192.066406 229.613281 191.730469 245.363281 C 187.292969 246.304688 184.050781 250.132812 183.859375 254.671875 L 216.289062 259.019531 C 221.957031 254.238281 223.441406 247.777344 221.25 245.859375 L 228.289062 226.621094 L 257.664062 165.398438 L 235.773438 145.71875 Z M 231.464844 143.523438 "/>
<path style=" stroke:none;fill-rule:nonzero;fill:rgb(62.745098%,38.039216%,41.568627%);fill-opacity:1;" d="M 404.738281 292.894531 C 405.585938 289.246094 404.773438 285.40625 402.523438 282.414062 C 400.269531 279.417969 396.808594 277.578125 393.070312 277.382812 L 317.316406 190.816406 L 301.246094 210 L 379.605469 290.273438 C 379.699219 296.726562 384.597656 302.085938 391.011719 302.753906 C 397.421875 303.421875 403.320312 299.1875 404.738281 292.894531 Z M 404.738281 292.894531 "/>
<path style=" stroke:none;fill-rule:nonzero;fill:rgb(90.196078%,90.196078%,90.196078%);fill-opacity:1;" d="M 271.351562 150.820312 C 271.351562 150.820312 275.320312 145.433594 284.828125 155.933594 C 292.441406 164.339844 344.085938 211.394531 351.191406 225.449219 C 355.601562 224.375 360.175781 226.429688 362.3125 230.4375 L 334.953125 248.390625 C 327.777344 246.53125 323.644531 241.347656 324.792969 238.671875 L 310.128906 224.371094 L 257.183594 181.878906 L 268.417969 154.660156 Z M 271.351562 150.820312 "/>
<path style=" stroke:none;fill-rule:nonzero;fill:rgb(42.352941%,38.823529%,100%);fill-opacity:1;" d="M 747.285156 194.941406 C 747.285156 301.84375 660.675781 388.503906 553.839844 388.503906 C 447.003906 388.503906 360.394531 301.84375 360.394531 194.941406 C 360.394531 88.039062 447.003906 1.378906 553.839844 1.378906 C 660.675781 1.378906 747.285156 88.039062 747.285156 194.941406 Z M 747.285156 194.941406 "/>
<use xlink:href="#surface5" mask="url(#mask0)"/>
<use xlink:href="#surface8" mask="url(#mask1)"/>
<path style=" stroke:none;fill-rule:nonzero;fill:rgb(100%,100%,100%);fill-opacity:1;" d="M 494.496094 301.773438 C 473.703125 301.773438 454.960938 289.242188 447.007812 270.023438 C 439.050781 250.804688 443.449219 228.683594 458.148438 213.976562 L 501.769531 169.445312 C 521.835938 149.332031 554.402344 149.320312 574.488281 169.417969 C 576.105469 171.035156 576.105469 173.664062 574.488281 175.28125 C 572.867188 176.902344 570.242188 176.902344 568.625 175.28125 C 551.789062 158.4375 524.496094 158.4375 507.660156 175.28125 C 501.253906 197.882812 487.410156 213.390625 464.039062 219.8125 C 447.175781 236.644531 447.152344 263.976562 463.988281 280.835938 C 480.824219 297.699219 508.136719 297.703125 524.976562 280.84375 C 524.03125 271.574219 526.738281 262.855469 547.960938 256.964844 C 548.988281 255.890625 550.507812 255.449219 551.949219 255.804688 C 553.386719 256.160156 554.527344 257.261719 554.9375 258.6875 C 555.347656 260.113281 554.964844 261.652344 553.929688 262.71875 L 530.894531 286.652344 C 521.269531 296.359375 508.160156 301.804688 494.496094 301.773438 Z M 494.496094 301.773438 "/>
<path style=" stroke:none;fill-rule:nonzero;fill:rgb(100%,100%,100%);fill-opacity:1;" d="M 565.3125 238.777344 C 551.671875 238.816406 538.582031 233.390625 528.964844 223.714844 C 527.347656 222.09375 527.347656 219.46875 528.964844 217.847656 C 530.585938 216.230469 533.210938 216.230469 534.828125 217.847656 C 551.664062 234.695312 578.957031 234.695312 595.792969 217.847656 C 601.316406 184.550781 623.839844 179.851562 643.417969 170.195312 C 660.253906 153.351562 660.253906 126.039062 643.417969 109.195312 C 626.582031 92.347656 599.285156 92.347656 582.453125 109.195312 C 577.003906 124.914062 571.660156 140.824219 555.4375 136.222656 C 553.820312 137.84375 551.195312 137.84375 549.578125 136.222656 C 547.957031 134.605469 547.957031 131.976562 549.578125 130.359375 L 576.589844 103.328125 C 596.660156 83.242188 629.207031 83.242188 649.277344 103.328125 C 669.351562 123.414062 669.351562 155.976562 649.277344 176.0625 L 601.65625 223.714844 C 592.035156 233.390625 578.949219 238.816406 565.3125 238.777344 Z M 565.3125 238.777344 "/>
<path style=" stroke:none;fill-rule:nonzero;fill:rgb(24.705882%,23.921569%,33.72549%);fill-opacity:1;" d="M 721.910156 96.4375 C 713.785156 82.628906 704.011719 69.867188 692.796875 58.429688 C 690.296875 55.882812 687.714844 53.394531 685.074219 50.976562 C 683.609375 49.636719 682.132812 48.320312 680.625 47.035156 C 677.765625 44.574219 674.820312 42.195312 671.824219 39.902344 C 637.953125 13.976562 596.480469 -0.046875 553.835938 0 C 446.417969 0 359.011719 87.449219 359.011719 194.945312 C 359.003906 206.796875 360.082031 218.628906 362.230469 230.285156 C 362.234375 230.347656 362.242188 230.414062 362.257812 230.476562 C 363.238281 235.828125 364.453125 241.109375 365.863281 246.292969 C 386.265625 321.078125 449.015625 376.660156 525.675781 387.847656 C 602.335938 399.039062 678.339844 363.714844 719.246094 297.878906 C 721.9375 293.539062 724.472656 289.085938 726.84375 284.523438 C 757.597656 225.140625 755.734375 154.121094 721.910156 96.4375 Z M 553.835938 387.125 C 447.746094 387.160156 361.738281 301.097656 361.773438 194.945312 C 361.773438 88.96875 447.9375 2.765625 553.835938 2.765625 C 605.609375 2.792969 655.175781 23.742188 691.292969 60.859375 C 695.953125 65.625 700.355469 70.636719 704.472656 75.875 C 708.550781 81.003906 712.355469 86.34375 715.871094 91.871094 C 745.527344 138.484375 753.683594 195.617188 738.257812 248.671875 C 736.558594 254.535156 734.566406 260.273438 732.328125 265.898438 C 730.078125 271.539062 727.574219 277.070312 724.8125 282.433594 C 691.867188 346.578125 625.910156 386.964844 553.835938 387.125 Z M 553.835938 387.125 "/>
<path style=" stroke:none;fill-rule:nonzero;fill:rgb(100%,71.372549%,71.372549%);fill-opacity:1;" d="M 818.871094 653.921875 L 806.171875 653.816406 L 800.546875 603.65625 L 819.292969 603.816406 Z M 818.871094 653.921875 "/>
<path style=" stroke:none;fill-rule:nonzero;fill:rgb(18.431373%,18.039216%,25.490196%);fill-opacity:1;" d="M 822.238281 648.0625 L 818.921875 647.839844 L 805.394531 646.914062 L 801.042969 646.625 L 800.960938 655.707031 L 780.675781 669.476562 C 778.621094 670.875 777.710938 673.449219 778.433594 675.828125 C 779.15625 678.210938 781.339844 679.84375 783.828125 679.859375 L 809.070312 680.070312 L 813.492188 671.109375 L 815.109375 680.125 L 824.644531 680.207031 Z M 822.238281 648.0625 "/>
<path style=" stroke:none;fill-rule:nonzero;fill:rgb(100%,71.372549%,71.372549%);fill-opacity:1;" d="M 952.582031 644.636719 L 940.445312 648.371094 L 919.953125 602.25 L 937.871094 596.738281 Z M 952.582031 644.636719 "/>
<path style=" stroke:none;fill-rule:nonzero;fill:rgb(18.431373%,18.039216%,25.490196%);fill-opacity:1;" d="M 954.03125 638.039062 L 950.796875 638.824219 L 937.628906 642.019531 L 933.386719 643.058594 L 936.054688 651.753906 L 920.867188 671 C 919.523438 672.710938 919.273438 675.039062 920.222656 677 C 921.171875 678.957031 923.15625 680.203125 925.332031 680.207031 C 925.894531 680.207031 926.453125 680.121094 926.988281 679.957031 L 951.128906 672.535156 L 952.632812 662.648438 L 956.902344 670.75 L 966.011719 667.941406 Z M 954.03125 638.039062 "/>
<path style=" stroke:none;fill-rule:nonzero;fill:rgb(18.431373%,18.039216%,25.490196%);fill-opacity:1;" d="M 793.324219 232.160156 L 769.089844 302.636719 L 768.289062 308.273438 C 762.183594 314.078125 769.855469 315.988281 766.976562 317.519531 C 764.101562 319.046875 762.167969 323.335938 766.042969 324.101562 C 769.917969 324.871094 782.417969 599.753906 798.902344 610.425781 C 815.386719 621.101562 825.417969 628.820312 822.390625 613.191406 C 821.171875 606.894531 822.898438 573.136719 825.390625 535.066406 C 825.675781 530.75 830.144531 526.183594 826.265625 521.988281 C 822.390625 517.792969 826.746094 515.035156 826.988281 511.550781 C 830.464844 461.839844 834.480469 412.757812 834.480469 412.757812 C 834.480469 412.757812 860.171875 501.046875 866.84375 494.210938 C 873.515625 487.375 870.875 504.203125 872.914062 509.234375 C 874.617188 513.433594 867.347656 521.6875 878.03125 521.816406 C 888.714844 521.941406 913.804688 607.757812 916.351562 607.664062 C 921.390625 607.46875 935.566406 608.011719 943.984375 606.28125 C 948.140625 605.421875 929.691406 540.449219 914.28125 484.34375 C 913.054688 479.871094 906.367188 479.765625 910.667969 471.128906 C 914.96875 462.492188 893.570312 406.597656 895.40625 404.011719 C 900.28125 397.152344 902.136719 394.167969 897.328125 393.71875 C 892.523438 393.269531 891.101562 395.90625 890.84375 389.253906 C 890.582031 382.597656 889.753906 366.183594 889.753906 366.183594 C 889.753906 366.183594 886.269531 301.273438 861.886719 265.410156 L 859.808594 244.101562 Z M 793.324219 232.160156 "/>
<path style=" stroke:none;fill-rule:nonzero;fill:rgb(90.196078%,90.196078%,90.196078%);fill-opacity:1;" d="M 853.875 97.601562 L 821.734375 102.183594 L 819.792969 125.46875 L 803.933594 150.292969 C 803.933594 150.292969 768.679688 175.117188 793.265625 214.332031 C 783.910156 248.113281 774.609375 280.511719 765.738281 302.109375 C 758.832031 344.96875 820.722656 349.078125 891.476562 333.910156 C 891.476562 333.910156 890.503906 315.582031 884.082031 306.773438 C 877.660156 297.960938 881.15625 296.039062 881.15625 296.039062 L 876.667969 279.578125 C 879.207031 255.785156 870.636719 253.652344 866.605469 242.660156 L 878.839844 128.601562 Z M 853.875 97.601562 "/>
<path style=" stroke:none;fill-rule:nonzero;fill:rgb(100%,71.372549%,71.372549%);fill-opacity:1;" d="M 699.582031 296.960938 C 700.292969 292.199219 704.660156 288.867188 709.433594 289.445312 C 709.902344 289.511719 710.359375 289.613281 710.808594 289.753906 L 729.425781 264.972656 L 745.316406 270 L 716.144531 301.1875 C 714.65625 304.925781 710.839844 307.195312 706.847656 306.707031 C 702.203125 306.09375 698.9375 301.835938 699.550781 297.191406 C 699.558594 297.113281 699.570312 297.039062 699.582031 296.960938 Z M 699.582031 296.960938 "/>
<path style=" stroke:none;fill-rule:nonzero;fill:rgb(90.196078%,90.196078%,90.196078%);fill-opacity:1;" d="M 864.949219 142.667969 C 864.492188 142.101562 863.996094 141.550781 863.46875 141.011719 C 856 133.308594 844.574219 130.980469 834.6875 135.148438 C 834.21875 135.339844 833.75 135.5625 833.292969 135.785156 C 816.78125 143.898438 807.871094 149.304688 806.792969 151.835938 C 806.417969 152.691406 806.101562 153.535156 805.78125 154.351562 C 805.476562 155.152344 805.1875 155.914062 804.882812 156.605469 C 803.613281 159.5625 802.148438 161.402344 798.417969 160.574219 C 797.179688 160.269531 795.988281 159.8125 794.867188 159.207031 C 794.355469 158.957031 793.886719 158.695312 793.445312 158.445312 C 791.839844 157.558594 790.679688 156.925781 789.894531 157.503906 C 789.132812 158.070312 789.105469 159.507812 789.796875 162.839844 C 790.023438 164.230469 789.988281 165.652344 789.6875 167.03125 C 788.773438 171.046875 787.339844 174.925781 785.429688 178.574219 C 782.566406 184.292969 779.34375 189.824219 775.785156 195.136719 L 742.914062 242.035156 L 740.6875 245.203125 L 738.257812 248.671875 L 718.855469 276.351562 L 720.003906 277.527344 L 724.8125 282.433594 L 725.875 283.527344 L 726.84375 284.523438 L 729.34375 287.082031 L 731.695312 289.472656 L 784.101562 246.75 L 789.949219 241.980469 L 800.421875 233.4375 L 821.878906 215.945312 L 862.488281 178.339844 C 867.667969 173.582031 870.6875 166.917969 870.847656 159.882812 C 870.847656 159.648438 870.863281 159.425781 870.863281 159.191406 C 870.878906 153.164062 868.785156 147.316406 864.949219 142.667969 Z M 864.949219 142.667969 "/>
<path style=" stroke:none;fill-rule:nonzero;fill:rgb(100%,71.372549%,71.372549%);fill-opacity:1;" d="M 870.492188 60.820312 C 870.492188 80.664062 854.414062 96.753906 834.578125 96.753906 C 814.742188 96.753906 798.664062 80.664062 798.664062 60.820312 C 798.664062 40.972656 814.742188 24.882812 834.578125 24.882812 C 854.414062 24.882812 870.492188 40.972656 870.492188 60.820312 Z M 870.492188 60.820312 "/>
<path style=" stroke:none;fill-rule:nonzero;fill:rgb(18.431373%,18.039216%,25.490196%);fill-opacity:1;" d="M 882.171875 110.648438 C 886.992188 117.550781 890.21875 125.441406 891.613281 133.746094 C 887.726562 136.230469 883.207031 137.539062 878.59375 137.503906 C 878.4375 136.902344 878.28125 136.296875 878.101562 135.691406 C 876.765625 131.011719 874.777344 126.546875 872.199219 122.421875 C 872.550781 126.867188 871.949219 131.339844 870.429688 135.535156 C 867.992188 134.429688 865.382812 133.753906 862.714844 133.542969 C 860.539062 133.542969 858.394531 134.050781 856.453125 135.019531 C 854.191406 127.523438 852.113281 120.628906 850.636719 115.683594 C 850.589844 128.082031 832.429688 138.894531 812.613281 137.328125 C 811.898438 136.878906 819.078125 116.492188 818.382812 116.019531 C 816.796875 114.96875 815.253906 113.828125 813.710938 112.707031 C 820.195312 102.683594 827.242188 91.941406 826.035156 90.328125 C 826.121094 92.320312 819.011719 101.898438 811.273438 110.941406 C 806.976562 107.785156 831.378906 56.445312 819.324219 52.28125 C 819.121094 54.09375 816.460938 54.09375 813.21875 53.714844 C 812.363281 50.722656 811.089844 47.867188 809.4375 45.230469 C 809.652344 47.886719 809.332031 50.558594 808.5 53.085938 C 805.296875 53.089844 802.101562 53.425781 798.96875 54.09375 C 798.246094 52.953125 797.445312 51.863281 796.578125 50.828125 C 796.664062 52.089844 796.625 53.355469 796.464844 54.609375 C 793.265625 55.304688 790.628906 56.109375 790.246094 56.757812 C 787.742188 55.839844 792.015625 51.699219 790.449219 49.550781 C 786.46875 44.179688 792.371094 36.347656 796.105469 30.796875 C 803.777344 19.429688 820.621094 15.488281 832.542969 22.316406 C 833.078125 20.457031 835.828125 19.226562 839.363281 18.398438 C 840.859375 18.070312 842.394531 17.925781 843.925781 17.972656 C 859.136719 18.242188 880.25 30.796875 881.078125 45.992188 C 881.144531 47.515625 881.257812 49.171875 881.367188 50.9375 C 882.441406 67.949219 881.121094 83.636719 892.730469 96.078125 C 896.933594 100.578125 896.980469 121.882812 895.367188 132.851562 C 891.1875 128.441406 888.210938 111.296875 882.171875 110.648438 Z M 882.171875 110.648438 "/>
<path style=" stroke:none;fill-rule:nonzero;fill:rgb(42.352941%,38.823529%,100%);fill-opacity:1;" d="M 490.773438 195.648438 C 490.773438 197.941406 488.917969 199.796875 486.628906 199.796875 C 484.339844 199.796875 482.484375 197.941406 482.484375 195.648438 C 482.484375 193.359375 484.339844 191.503906 486.628906 191.503906 C 488.917969 191.503906 490.773438 193.359375 490.773438 195.648438 Z M 490.773438 195.648438 "/>
<path style=" stroke:none;fill-rule:nonzero;fill:rgb(42.352941%,38.823529%,100%);fill-opacity:1;" d="M 622.039062 192.886719 C 622.039062 195.175781 620.183594 197.03125 617.894531 197.03125 C 615.605469 197.03125 613.75 195.175781 613.75 192.886719 C 613.75 190.59375 615.605469 188.738281 617.894531 188.738281 C 620.183594 188.738281 622.039062 190.59375 622.039062 192.886719 Z M 622.039062 192.886719 "/>
<path style=" stroke:none;fill-rule:nonzero;fill:rgb(18.431373%,18.039216%,25.490196%);fill-opacity:1;" d="M 223.308594 75.761719 C 220.15625 83.621094 211.253906 99.082031 210.050781 107.515625 L 210.59375 106.984375 C 211.628906 108.753906 212.804688 110.433594 214.109375 112.015625 C 216.449219 109.554688 219.277344 107.609375 222.410156 106.304688 C 220.699219 109.816406 219.707031 113.636719 219.496094 117.539062 C 222.855469 128.070312 238.378906 123.378906 247.476562 122.230469 C 256.5625 132.628906 268.648438 135.339844 284.476562 129.363281 C 288.902344 129.820312 293.859375 130.097656 296.960938 127.480469 C 300.0625 124.863281 298.214844 120.015625 299.882812 116.347656 C 311.773438 90.234375 300.800781 80.816406 291.480469 68.972656 C 289.429688 66.367188 289.4375 62.480469 286.941406 59.992188 C 283.480469 56.546875 278.171875 55.488281 273.277344 54.640625 C 275.863281 54.773438 278.332031 53.550781 279.792969 51.414062 C 281.074219 49.25 281.042969 46.550781 279.703125 44.425781 C 277.953125 41.519531 274.316406 39.832031 270.804688 39.410156 C 267.347656 39.175781 263.875 39.472656 260.507812 40.296875 C 258.328125 40.582031 256.21875 41.257812 254.273438 42.289062 C 252.398438 43.292969 251.339844 45.355469 251.617188 47.464844 C 252.210938 49.394531 253.648438 50.945312 255.527344 51.679688 C 256.9375 52.277344 258.425781 52.683594 259.945312 52.890625 C 252.964844 51.984375 245.871094 53.226562 239.613281 56.453125 C 231.769531 60.636719 226.476562 67.902344 223.308594 75.761719 Z M 223.308594 75.761719 "/>
<path style=" stroke:none;fill-rule:nonzero;fill:rgb(62.745098%,38.039216%,41.568627%);fill-opacity:1;" d="M 293.824219 91.78125 C 293.824219 107.273438 281.269531 119.835938 265.78125 119.835938 C 250.296875 119.835938 237.742188 107.273438 237.742188 91.78125 C 237.742188 76.285156 250.296875 63.722656 265.78125 63.722656 C 281.269531 63.722656 293.824219 76.285156 293.824219 91.78125 Z M 293.824219 91.78125 "/>
<path style=" stroke:none;fill-rule:nonzero;fill:rgb(18.431373%,18.039216%,25.490196%);fill-opacity:1;" d="M 238.800781 76.734375 C 240.429688 81.652344 245.074219 83.238281 249.367188 84.226562 C 250.722656 84.539062 252.085938 84.835938 253.460938 85.097656 C 253.964844 84.460938 254.507812 83.839844 255.070312 83.253906 C 257.410156 80.792969 260.238281 78.847656 263.371094 77.542969 C 262.015625 80.316406 261.113281 83.289062 260.703125 86.351562 C 263.296875 86.726562 265.910156 87.035156 268.535156 87.273438 C 273.144531 88.257812 277.71875 85.449219 278.933594 80.890625 C 281.320312 84.800781 284.148438 88.484375 288.011719 90.035156 C 292.546875 91.667969 297.613281 90.148438 300.507812 86.292969 C 302.734375 83.230469 304.28125 79.726562 305.039062 76.011719 C 306.132812 71.660156 306.742188 66.644531 304.589844 63.882812 C 302.867188 61.644531 299.890625 61.605469 297.144531 61.804688 C 291.085938 62.269531 285.09375 63.355469 279.257812 65.050781 L 278.761719 66.160156 C 279.765625 60.132812 277.589844 54.332031 273.5625 52.269531 C 270.847656 50.886719 267.582031 51.121094 264.410156 51.398438 C 260.332031 51.582031 256.304688 52.359375 252.453125 53.714844 C 248.035156 55.414062 244.25 58.4375 241.617188 62.371094 C 238.800781 66.652344 237.398438 72.492188 238.800781 76.734375 Z M 238.800781 76.734375 "/>
<path style=" stroke:none;fill-rule:nonzero;fill:rgb(18.431373%,18.039216%,25.490196%);fill-opacity:1;" d="M 278.773438 50.511719 C 278.5 50.429688 279.214844 50.535156 278.964844 50.542969 C 279.089844 50.535156 279.210938 50.519531 279.332031 50.492188 C 279.355469 50.488281 279.632812 50.398438 279.449219 50.464844 C 279.863281 50.339844 280.234375 50.097656 280.515625 49.765625 C 281.175781 48.949219 281.691406 48.03125 282.046875 47.042969 C 282.492188 45.738281 283.207031 44.542969 284.148438 43.535156 C 284.6875 42.992188 285.457031 42.742188 286.214844 42.855469 C 286.972656 42.972656 287.628906 43.441406 287.984375 44.121094 C 288.339844 45.417969 288.214844 46.796875 287.640625 48.007812 C 287.238281 49.242188 286.640625 50.402344 285.871094 51.445312 C 284.578125 53.148438 282.816406 54.441406 280.804688 55.164062 C 278.472656 56.011719 275.929688 56.082031 273.554688 55.371094 C 272.914062 55.105469 272.492188 54.484375 272.476562 53.789062 C 272.460938 53.097656 272.855469 52.457031 273.484375 52.164062 L 277.449219 50.542969 C 278.324219 50.15625 279.347656 50.554688 279.734375 51.433594 C 280.121094 52.308594 279.722656 53.332031 278.84375 53.71875 L 274.882812 55.34375 L 274.8125 52.136719 C 275.308594 52.277344 275.816406 52.367188 276.328125 52.394531 C 276.878906 52.449219 277.429688 52.425781 277.972656 52.324219 C 278.492188 52.257812 279 52.132812 279.492188 51.953125 C 279.808594 51.839844 280.117188 51.707031 280.417969 51.5625 C 280.527344 51.507812 280.636719 51.453125 280.742188 51.398438 C 280.734375 51.402344 281.195312 51.132812 280.996094 51.257812 C 281.507812 50.929688 281.988281 50.554688 282.429688 50.140625 C 282.585938 49.992188 282.730469 49.832031 282.859375 49.660156 C 283.085938 49.382812 283.296875 49.089844 283.488281 48.789062 C 283.878906 48.152344 284.1875 47.464844 284.40625 46.75 C 284.507812 46.449219 284.59375 46.144531 284.664062 45.832031 C 284.679688 45.664062 284.710938 45.496094 284.753906 45.328125 C 284.902344 44.933594 284.726562 45.558594 284.894531 45.730469 L 285.625 46.269531 C 285.902344 46.351562 286.203125 46.304688 286.441406 46.140625 C 286.527344 46.015625 286.507812 46.035156 286.386719 46.199219 C 286.242188 46.390625 286.109375 46.589844 285.988281 46.796875 C 285.726562 47.285156 285.488281 47.789062 285.28125 48.300781 C 284.84375 49.394531 284.292969 50.433594 283.636719 51.40625 C 282.316406 53.429688 279.847656 54.371094 277.515625 53.75 C 276.628906 53.394531 276.191406 52.394531 276.527344 51.5 C 276.890625 50.621094 277.882812 50.1875 278.773438 50.511719 Z M 278.773438 50.511719 "/>
</g>
</svg>
