<svg viewBox="0 0 562 119" fill="none" xmlns="http://www.w3.org/2000/svg">
            <mask id="path-1-outside-1_2_3" maskUnits="userSpaceOnUse" x="0.344002" y="0.743996" width="562"
                height="118" fill="black">
                <rect fill="white" x="0.344002" y="0.743996" width="562" height="118" />
                <path
                    d="M71.288 83.496C71.288 92.616 67.976 99.72 61.352 104.808C54.728 109.896 45.8 112.44 34.568 112.44C28.808 112.44 23.48 112.008 18.584 111.144C13.688 110.28 9.608 109.08 6.344 107.544V95.16C9.8 96.696 14.072 98.088 19.16 99.336C24.344 100.584 29.672 101.208 35.144 101.208C42.728 101.208 48.488 99.72 52.424 96.744C56.36 93.768 58.328 89.736 58.328 84.648C58.328 81.288 57.608 78.456 56.168 76.152C54.728 73.848 52.232 71.736 48.68 69.816C45.128 67.896 40.28 65.784 34.136 63.48C25.304 60.312 18.68 56.424 14.264 51.816C9.848 47.208 7.64 40.92 7.64 32.952C7.64 27.576 9.032 22.92 11.816 18.984C14.6 15.048 18.44 12.024 23.336 9.91199C28.232 7.79999 33.944 6.744 40.472 6.744C46.04 6.744 51.176 7.27199 55.88 8.32799C60.584 9.384 64.904 10.776 68.84 12.504L64.808 23.592C61.256 22.056 57.368 20.76 53.144 19.704C48.92 18.648 44.6 18.12 40.184 18.12C33.752 18.12 28.904 19.512 25.64 22.296C22.376 24.984 20.744 28.584 20.744 33.096C20.744 36.552 21.464 39.432 22.904 41.736C24.344 44.04 26.696 46.152 29.96 48.072C33.224 49.896 37.64 51.816 43.208 53.832C49.256 56.04 54.344 58.44 58.472 61.032C62.696 63.528 65.864 66.552 67.976 70.104C70.184 73.656 71.288 78.12 71.288 83.496Z" />
                <path
                    d="M149.455 111H91.9993V8.18399H149.455V19.56H104.959V51.672H146.863V62.904H104.959V99.624H149.455V111Z" />
                <path d="M172.015 111V8.18399H184.975V99.48H229.903V111H172.015Z" />
                <path
                    d="M304.987 111H247.531V8.18399H304.987V19.56H260.491V51.672H302.395V62.904H260.491V99.624H304.987V111Z" />
                <path
                    d="M371.61 18.12C360.57 18.12 351.882 21.816 345.546 29.208C339.21 36.6 336.042 46.728 336.042 59.592C336.042 72.36 338.97 82.488 344.826 89.976C350.778 97.368 359.658 101.064 371.466 101.064C375.882 101.064 380.106 100.68 384.138 99.912C388.17 99.144 392.154 98.184 396.09 97.032V108.264C392.25 109.704 388.266 110.76 384.138 111.432C380.106 112.104 375.258 112.44 369.594 112.44C359.13 112.44 350.394 110.28 343.386 105.96C336.378 101.64 331.098 95.496 327.546 87.528C324.09 79.56 322.362 70.2 322.362 59.448C322.362 49.08 324.234 39.96 327.978 32.088C331.818 24.12 337.434 17.928 344.826 13.512C352.218 8.99999 361.194 6.744 371.754 6.744C382.602 6.744 392.058 8.75999 400.122 12.792L394.938 23.736C391.77 22.296 388.218 21 384.282 19.848C380.442 18.696 376.218 18.12 371.61 18.12Z" />
                <path
                    d="M476.851 83.496C476.851 92.616 473.538 99.72 466.914 104.808C460.29 109.896 451.363 112.44 440.131 112.44C434.371 112.44 429.043 112.008 424.147 111.144C419.251 110.28 415.171 109.08 411.907 107.544V95.16C415.363 96.696 419.635 98.088 424.723 99.336C429.907 100.584 435.235 101.208 440.707 101.208C448.291 101.208 454.051 99.72 457.987 96.744C461.923 93.768 463.891 89.736 463.891 84.648C463.891 81.288 463.171 78.456 461.731 76.152C460.291 73.848 457.795 71.736 454.243 69.816C450.691 67.896 445.843 65.784 439.699 63.48C430.867 60.312 424.243 56.424 419.827 51.816C415.411 47.208 413.203 40.92 413.203 32.952C413.203 27.576 414.595 22.92 417.379 18.984C420.163 15.048 424.003 12.024 428.899 9.91199C433.795 7.79999 439.507 6.744 446.035 6.744C451.603 6.744 456.739 7.27199 461.443 8.32799C466.147 9.384 470.467 10.776 474.403 12.504L470.371 23.592C466.819 22.056 462.931 20.76 458.707 19.704C454.483 18.648 450.162 18.12 445.746 18.12C439.314 18.12 434.467 19.512 431.203 22.296C427.939 24.984 426.306 28.584 426.306 33.096C426.306 36.552 427.026 39.432 428.466 41.736C429.906 44.04 432.258 46.152 435.522 48.072C438.786 49.896 443.203 51.816 448.771 53.832C454.819 56.04 459.907 58.44 464.035 61.032C468.259 63.528 471.427 66.552 473.539 70.104C475.747 73.656 476.851 78.12 476.851 83.496Z" />
                <path
                    d="M555.882 83.496C555.882 92.616 552.57 99.72 545.946 104.808C539.322 109.896 530.394 112.44 519.162 112.44C513.402 112.44 508.074 112.008 503.178 111.144C498.282 110.28 494.202 109.08 490.938 107.544V95.16C494.394 96.696 498.666 98.088 503.754 99.336C508.938 100.584 514.266 101.208 519.738 101.208C527.322 101.208 533.082 99.72 537.018 96.744C540.954 93.768 542.922 89.736 542.922 84.648C542.922 81.288 542.202 78.456 540.762 76.152C539.322 73.848 536.826 71.736 533.274 69.816C529.722 67.896 524.874 65.784 518.73 63.48C509.898 60.312 503.274 56.424 498.858 51.816C494.442 47.208 492.234 40.92 492.234 32.952C492.234 27.576 493.626 22.92 496.41 18.984C499.194 15.048 503.034 12.024 507.93 9.91199C512.826 7.79999 518.538 6.744 525.066 6.744C530.634 6.744 535.77 7.27199 540.474 8.32799C545.178 9.384 549.498 10.776 553.434 12.504L549.402 23.592C545.85 22.056 541.962 20.76 537.738 19.704C533.514 18.648 529.194 18.12 524.778 18.12C518.346 18.12 513.498 19.512 510.234 22.296C506.97 24.984 505.338 28.584 505.338 33.096C505.338 36.552 506.058 39.432 507.498 41.736C508.938 44.04 511.29 46.152 514.554 48.072C517.818 49.896 522.234 51.816 527.802 53.832C533.85 56.04 538.938 58.44 543.066 61.032C547.29 63.528 550.458 66.552 552.57 70.104C554.778 73.656 555.882 78.12 555.882 83.496Z" />
            </mask>
            <path
                d="M71.288 83.496C71.288 92.616 67.976 99.72 61.352 104.808C54.728 109.896 45.8 112.44 34.568 112.44C28.808 112.44 23.48 112.008 18.584 111.144C13.688 110.28 9.608 109.08 6.344 107.544V95.16C9.8 96.696 14.072 98.088 19.16 99.336C24.344 100.584 29.672 101.208 35.144 101.208C42.728 101.208 48.488 99.72 52.424 96.744C56.36 93.768 58.328 89.736 58.328 84.648C58.328 81.288 57.608 78.456 56.168 76.152C54.728 73.848 52.232 71.736 48.68 69.816C45.128 67.896 40.28 65.784 34.136 63.48C25.304 60.312 18.68 56.424 14.264 51.816C9.848 47.208 7.64 40.92 7.64 32.952C7.64 27.576 9.032 22.92 11.816 18.984C14.6 15.048 18.44 12.024 23.336 9.91199C28.232 7.79999 33.944 6.744 40.472 6.744C46.04 6.744 51.176 7.27199 55.88 8.32799C60.584 9.384 64.904 10.776 68.84 12.504L64.808 23.592C61.256 22.056 57.368 20.76 53.144 19.704C48.92 18.648 44.6 18.12 40.184 18.12C33.752 18.12 28.904 19.512 25.64 22.296C22.376 24.984 20.744 28.584 20.744 33.096C20.744 36.552 21.464 39.432 22.904 41.736C24.344 44.04 26.696 46.152 29.96 48.072C33.224 49.896 37.64 51.816 43.208 53.832C49.256 56.04 54.344 58.44 58.472 61.032C62.696 63.528 65.864 66.552 67.976 70.104C70.184 73.656 71.288 78.12 71.288 83.496Z"
                stroke="#4682B4" stroke-width="12" mask="url(#path-1-outside-1_2_3)" />
            <path
                d="M149.455 111H91.9993V8.18399H149.455V19.56H104.959V51.672H146.863V62.904H104.959V99.624H149.455V111Z"
                stroke="#4682B4" stroke-width="12" mask="url(#path-1-outside-1_2_3)" />
            <path d="M172.015 111V8.18399H184.975V99.48H229.903V111H172.015Z" stroke="#4682B4" stroke-width="12"
                mask="url(#path-1-outside-1_2_3)" />
            <path
                d="M304.987 111H247.531V8.18399H304.987V19.56H260.491V51.672H302.395V62.904H260.491V99.624H304.987V111Z"
                stroke="#4682B4" stroke-width="12" mask="url(#path-1-outside-1_2_3)" />
            <path
                d="M371.61 18.12C360.57 18.12 351.882 21.816 345.546 29.208C339.21 36.6 336.042 46.728 336.042 59.592C336.042 72.36 338.97 82.488 344.826 89.976C350.778 97.368 359.658 101.064 371.466 101.064C375.882 101.064 380.106 100.68 384.138 99.912C388.17 99.144 392.154 98.184 396.09 97.032V108.264C392.25 109.704 388.266 110.76 384.138 111.432C380.106 112.104 375.258 112.44 369.594 112.44C359.13 112.44 350.394 110.28 343.386 105.96C336.378 101.64 331.098 95.496 327.546 87.528C324.09 79.56 322.362 70.2 322.362 59.448C322.362 49.08 324.234 39.96 327.978 32.088C331.818 24.12 337.434 17.928 344.826 13.512C352.218 8.99999 361.194 6.744 371.754 6.744C382.602 6.744 392.058 8.75999 400.122 12.792L394.938 23.736C391.77 22.296 388.218 21 384.282 19.848C380.442 18.696 376.218 18.12 371.61 18.12Z"
                stroke="#4682B4" stroke-width="12" mask="url(#path-1-outside-1_2_3)" />
            <path
                d="M476.851 83.496C476.851 92.616 473.538 99.72 466.914 104.808C460.29 109.896 451.363 112.44 440.131 112.44C434.371 112.44 429.043 112.008 424.147 111.144C419.251 110.28 415.171 109.08 411.907 107.544V95.16C415.363 96.696 419.635 98.088 424.723 99.336C429.907 100.584 435.235 101.208 440.707 101.208C448.291 101.208 454.051 99.72 457.987 96.744C461.923 93.768 463.891 89.736 463.891 84.648C463.891 81.288 463.171 78.456 461.731 76.152C460.291 73.848 457.795 71.736 454.243 69.816C450.691 67.896 445.843 65.784 439.699 63.48C430.867 60.312 424.243 56.424 419.827 51.816C415.411 47.208 413.203 40.92 413.203 32.952C413.203 27.576 414.595 22.92 417.379 18.984C420.163 15.048 424.003 12.024 428.899 9.91199C433.795 7.79999 439.507 6.744 446.035 6.744C451.603 6.744 456.739 7.27199 461.443 8.32799C466.147 9.384 470.467 10.776 474.403 12.504L470.371 23.592C466.819 22.056 462.931 20.76 458.707 19.704C454.483 18.648 450.162 18.12 445.746 18.12C439.314 18.12 434.467 19.512 431.203 22.296C427.939 24.984 426.306 28.584 426.306 33.096C426.306 36.552 427.026 39.432 428.466 41.736C429.906 44.04 432.258 46.152 435.522 48.072C438.786 49.896 443.203 51.816 448.771 53.832C454.819 56.04 459.907 58.44 464.035 61.032C468.259 63.528 471.427 66.552 473.539 70.104C475.747 73.656 476.851 78.12 476.851 83.496Z"
                stroke="#4682B4" stroke-width="12" mask="url(#path-1-outside-1_2_3)" />
            <path
                d="M555.882 83.496C555.882 92.616 552.57 99.72 545.946 104.808C539.322 109.896 530.394 112.44 519.162 112.44C513.402 112.44 508.074 112.008 503.178 111.144C498.282 110.28 494.202 109.08 490.938 107.544V95.16C494.394 96.696 498.666 98.088 503.754 99.336C508.938 100.584 514.266 101.208 519.738 101.208C527.322 101.208 533.082 99.72 537.018 96.744C540.954 93.768 542.922 89.736 542.922 84.648C542.922 81.288 542.202 78.456 540.762 76.152C539.322 73.848 536.826 71.736 533.274 69.816C529.722 67.896 524.874 65.784 518.73 63.48C509.898 60.312 503.274 56.424 498.858 51.816C494.442 47.208 492.234 40.92 492.234 32.952C492.234 27.576 493.626 22.92 496.41 18.984C499.194 15.048 503.034 12.024 507.93 9.91199C512.826 7.79999 518.538 6.744 525.066 6.744C530.634 6.744 535.77 7.27199 540.474 8.32799C545.178 9.384 549.498 10.776 553.434 12.504L549.402 23.592C545.85 22.056 541.962 20.76 537.738 19.704C533.514 18.648 529.194 18.12 524.778 18.12C518.346 18.12 513.498 19.512 510.234 22.296C506.97 24.984 505.338 28.584 505.338 33.096C505.338 36.552 506.058 39.432 507.498 41.736C508.938 44.04 511.29 46.152 514.554 48.072C517.818 49.896 522.234 51.816 527.802 53.832C533.85 56.04 538.938 58.44 543.066 61.032C547.29 63.528 550.458 66.552 552.57 70.104C554.778 73.656 555.882 78.12 555.882 83.496Z"
                stroke="#4682B4" stroke-width="12" mask="url(#path-1-outside-1_2_3)" />
        </svg>